<svg width="334" height="61" viewBox="0 0 334 61" fill="none" xmlns="http://www.w3.org/2000/svg">
<path d="M115.688 16.2188H115.812C123.604 16.2188 129.667 19.6562 134 26.5312C134.708 28.0521 135.062 28.8854 135.062 29.0312V29.1562C130.354 31.4479 127.823 32.5938 127.469 32.5938C125.469 27.3646 121.823 24.75 116.531 24.75C108.969 24.75 104.531 28.3542 103.219 35.5625C103.135 36.3125 103.094 37.0312 103.094 37.7188V39.8438C103.094 45.1771 105.552 49.0625 110.469 51.5C111.594 51.8958 113.375 52.25 115.812 52.5625L115.938 52.8125V60.6562C115.938 60.8854 115.781 61 115.469 61C106.344 61 99.8021 56.4896 95.8438 47.4688C94.8229 44.1979 94.3125 41.2604 94.3125 38.6562C94.3125 29.3021 98.3958 22.4167 106.562 18C109.521 16.8125 112.562 16.2188 115.688 16.2188ZM182.531 16.375L163.844 43.4062V60.625C163.719 60.875 163.604 61 163.5 61H155.375C155.125 60.875 155 60.75 155 60.625V41C155.354 40.1667 160.042 33.375 169.062 20.625C170.854 17.7083 172.031 16.25 172.594 16.25H182.281L182.531 16.375ZM219.375 16.2188C219.875 16.2188 221.125 16.3854 223.125 16.7188C230.812 19.0104 234.656 23.9062 234.656 31.4062C234.49 33.5104 234.208 35.2812 233.812 36.7188C231.25 43.2812 226.073 46.5625 218.281 46.5625H211.469V60.625C211.344 60.875 211.229 61 211.125 61H202.875C202.625 60.875 202.5 60.75 202.5 60.625V16.5938C202.625 16.3438 202.75 16.2188 202.875 16.2188H211C211.229 16.3438 211.344 16.4688 211.344 16.5938V38.0625H218.281C223.302 38.0625 225.812 35.9167 225.812 31.625V31.2812C225.812 28.4271 224.635 26.4792 222.281 25.4375C220.24 25.0208 219.188 24.6979 219.125 24.4688V16.5938C219.292 16.3854 219.375 16.2604 219.375 16.2188ZM255 16.0938H279.438C279.562 16.0938 279.688 16.2188 279.812 16.4688V24.5C279.812 24.6042 279.688 24.7292 279.438 24.875H255C254.875 24.875 254.75 24.75 254.625 24.5V16.4688C254.625 16.3438 254.75 16.2188 255 16.0938ZM255 34.0938H279.438C279.562 34.0938 279.688 34.2188 279.812 34.4688V42.5C279.812 42.625 279.688 42.75 279.438 42.875H255C254.875 42.875 254.75 42.75 254.625 42.5V34.4688C254.625 34.3646 254.75 34.2396 255 34.0938ZM255 52.25H279.438C279.562 52.25 279.688 52.3646 279.812 52.5938V60.625C279.812 60.75 279.688 60.875 279.438 61H255C254.875 61 254.75 60.875 254.625 60.625V52.5938C254.625 52.4896 254.75 52.375 255 52.25ZM312.25 16.1875C313.646 16.1875 315.344 16.3958 317.344 16.8125C324.469 19.1667 328.031 23.9375 328.031 31.125C328.031 33.1667 327.51 35.4375 326.469 37.9375C324.802 40.7083 322.448 42.6042 319.406 43.625V44C326.052 55.0625 329.375 60.7292 329.375 61H319.531C319.198 60.8958 318.229 59.3958 316.625 56.5C309.333 43.7917 305.646 37.2396 305.562 36.8438V36.7188H311.531C316.635 36.7188 319.188 34.8125 319.188 31V30.6562C319.188 29.6562 318.938 28.7188 318.438 27.8438C317.208 25.8229 314.906 24.8125 311.531 24.8125H300.125C299.875 24.6875 299.75 24.5729 299.75 24.4688V16.5625C299.875 16.3125 300 16.1875 300.125 16.1875H312.25Z" fill="#5E6A6A"/>
<path fill-rule="evenodd" clip-rule="evenodd" d="M25.6185 4.26478C27.9022 3.25922 30.4341 2.84157 32.915 3.05386C34.9952 3.22464 37.0419 3.82478 38.8814 4.82342C42.3674 6.69514 45.0654 9.99911 46.2462 13.8075C47.478 17.7041 47.0742 22.0908 45.1695 25.697C44.5282 26.9276 43.7196 28.0699 42.7722 29.0781C43.2981 29.5188 43.8184 29.9661 44.3387 30.4134C44.7537 30.7701 45.1687 31.1269 45.5864 31.4802C45.6576 30.9868 45.7445 30.4957 45.8314 30.0046L45.8314 30.0046L45.8314 30.0045L45.8315 30.0045L45.8315 30.0044L45.8315 30.0044L45.8315 30.0044L45.8315 30.0043C45.9039 29.5953 45.9763 29.1863 46.0396 28.7759C46.2588 27.4825 46.4796 26.1886 46.7041 24.8962C49.3093 27.9818 51.9086 31.0728 54.5079 34.1639L54.5089 34.165L54.5098 34.1661L54.5108 34.1673L54.5117 34.1684L54.5127 34.1695L54.5136 34.1707L54.5146 34.1718C56.3013 36.2965 58.088 38.4212 59.8766 40.5441C60.2843 41.0335 60.6954 41.52 61.1065 42.0065L61.1071 42.0073C61.7375 42.7533 62.3679 43.4993 62.9857 44.2556C61.1701 43.2028 59.3568 42.1458 57.5436 41.0887L57.543 41.0883C55.34 39.804 53.137 38.5197 50.9299 37.2433C50.9327 37.5205 50.9322 37.7978 50.9316 38.0751V38.0753C50.9306 38.6299 50.9295 39.1846 50.9551 39.7386C50.9583 41.9242 50.9641 44.1098 50.9709 46.2954C50.5099 45.9455 50.0603 45.5797 49.6107 45.2139L49.6104 45.2136C49.3131 44.9717 49.0157 44.7297 48.715 44.4924C47.7274 43.6962 46.7401 42.8997 45.7528 42.1031C43.7777 40.5096 41.8025 38.916 39.8245 37.3258C39.67 38.285 39.3225 39.2225 38.7452 40.0046C38.3504 40.5409 37.8378 41.007 37.2196 41.2581C36.8799 41.3863 36.5204 41.4565 36.1602 41.4895C36.1619 41.7669 36.1752 42.0439 36.1886 42.321C36.201 42.5781 36.2135 42.8352 36.2165 43.0926C36.2379 43.3618 36.2458 43.6316 36.2536 43.9013C36.2618 44.1812 36.27 44.461 36.2932 44.7403C36.2944 44.8684 36.2996 44.9968 36.3049 45.1252L36.3049 45.1254V45.1255C36.3161 45.4027 36.3274 45.6802 36.298 45.9565L36.3131 45.8576L36.3247 45.7829L36.3458 45.6463C36.336 46.0632 36.3565 46.479 36.377 46.895C36.3905 47.1698 36.4041 47.4446 36.4089 47.7197C36.4196 48.0252 36.4338 48.3306 36.4481 48.636C36.4802 49.323 36.5123 50.01 36.5035 50.6981C36.5033 51.1875 36.5034 51.6769 36.5035 52.1663C36.5037 53.0219 36.5038 53.8777 36.5025 54.7336C37.3931 54.9108 38.2931 55.1459 39.0696 55.6386C39.3161 55.8094 39.5753 55.9977 39.702 56.2818C39.7898 56.4989 39.7872 56.7527 39.6747 56.9602C39.5522 57.2071 39.3009 57.3507 39.0554 57.4449C38.6043 57.6189 38.1207 57.6737 37.6444 57.7269C36.6833 57.8104 35.716 57.8184 34.7545 57.7487C34.2477 57.7146 33.7393 57.6609 33.2425 57.5513C33.0238 57.5071 32.8382 57.3326 32.7872 57.1124C32.7005 56.7325 32.6179 56.3515 32.5475 55.9685C32.4116 55.963 32.2758 55.9629 32.14 55.9629H32.1397C31.9718 55.9628 31.804 55.9628 31.6364 55.9525C31.7749 55.952 31.9136 55.9522 32.0524 55.9524C32.2144 55.9526 32.3766 55.9528 32.5385 55.952C32.3138 54.9119 32.0911 53.8713 31.8683 52.8309C31.5225 51.2155 31.1766 49.6003 30.8236 47.9868C30.5145 49.5283 30.2125 51.0713 29.9105 52.6144L29.9103 52.6151L29.9102 52.6158L29.9101 52.6165L29.9099 52.6172L29.9098 52.6179L29.9097 52.6186L29.9095 52.6193C29.692 53.7305 29.4745 54.8417 29.2543 55.9525C29.4343 55.9539 29.6143 55.9533 29.7944 55.9526H29.7944H29.7945H29.7946H29.7946H29.7947H29.7948H29.7949C29.9623 55.9521 30.1298 55.9515 30.2974 55.9525C30.0483 55.9659 29.799 55.9644 29.5496 55.9629C29.4526 55.9624 29.3556 55.9618 29.2586 55.9621C29.2179 56.1478 29.1815 56.3346 29.1451 56.5214L29.1451 56.5215C29.1078 56.7135 29.0704 56.9055 29.0283 57.0964C28.9852 57.3156 28.8112 57.4986 28.594 57.5449C27.9382 57.6967 27.265 57.737 26.5953 57.7771L26.4496 57.7859C25.4655 57.8077 24.4755 57.796 23.5008 57.6396C23.116 57.5688 22.7186 57.4789 22.3916 57.2517C22.0966 57.0474 21.9657 56.6372 22.1024 56.2999C22.2317 56.0068 22.4962 55.8073 22.7522 55.6338C23.5256 55.1443 24.4224 54.9113 25.3083 54.7341C25.3085 54.2386 25.3085 53.7432 25.3085 53.2479C25.3085 52.7534 25.3085 52.2589 25.3088 51.7643C25.311 51.5178 25.3097 51.2711 25.3085 51.0245C25.3055 50.4536 25.3026 49.8828 25.343 49.3132L25.3462 49.2495C25.4497 47.1952 25.5532 45.1426 25.6489 43.0888C25.6671 42.9008 25.6732 42.7119 25.6793 42.5231V42.5231V42.523C25.6865 42.3027 25.6936 42.0824 25.7199 41.8635C24.9098 41.3783 24.2164 40.6877 23.76 39.8519C23.3289 39.107 23.1465 38.2451 23.0761 37.3928C21.8371 38.3921 20.5979 39.391 19.3588 40.3899L19.3569 40.3914L19.3564 40.3918L19.3545 40.3933L19.3541 40.3937L19.3522 40.3952C16.9061 42.367 14.4602 44.3387 12.0159 46.313C12.0212 44.6722 12.0259 43.0314 12.0285 41.3906C12.0268 40.7441 12.0351 40.0977 12.0434 39.4513C12.0528 38.7156 12.0622 37.9799 12.0569 37.2438C9.87103 38.5071 7.6898 39.7788 5.5085 41.0506L5.50826 41.0507L5.50773 41.0511L5.50691 41.0515C3.67226 42.1212 1.83755 43.1909 0 44.2556C0.734505 43.3626 1.4805 42.479 2.22654 41.5953L2.22658 41.5952L2.22668 41.5951L2.22683 41.5949C2.71686 41.0145 3.2069 40.434 3.69373 39.8508C5.38245 37.8456 7.06998 35.8392 8.75752 33.8328L8.76264 33.8267L8.76316 33.8261C11.2682 30.8477 13.7732 27.8694 16.2821 24.8946C16.4076 25.611 16.5301 26.3279 16.6527 27.0449L16.653 27.0464L16.6532 27.0478L16.6535 27.0492C16.7336 27.5178 16.8137 27.9865 16.8946 28.4551C16.9672 28.9282 17.0501 29.3999 17.133 29.8715C17.2271 30.407 17.3213 30.9425 17.4004 31.4802C17.9277 31.0325 18.4527 30.5819 18.9776 30.1314C19.2854 29.8674 19.5931 29.6033 19.9012 29.3398C19.9538 29.2936 20.0074 29.2484 20.0609 29.2031C20.1793 29.1032 20.2977 29.0032 20.4059 28.8919C17.8551 26.0976 16.3889 22.3185 16.3862 18.5139C16.3805 15.8744 17.0492 13.2334 18.3251 10.9297C19.9417 7.97523 22.5514 5.59382 25.6185 4.26478ZM28.2829 4.84362C25.4897 5.55602 22.9405 7.18566 21.0815 9.40959C18.9728 11.9096 17.7632 15.1838 17.7994 18.4756C17.7689 21.705 18.9429 24.9138 20.9737 27.3973C22.1955 28.8988 23.7285 30.1395 25.4461 31.0126C27.4096 32.0107 29.6119 32.5278 31.8094 32.4996C34.1221 32.4911 36.4247 31.8532 38.4367 30.7029C41.6352 28.8913 44.0887 25.7624 45.0487 22.177C45.4461 20.7458 45.6007 19.2502 45.5381 17.7669C45.5222 17.625 45.5137 17.4817 45.5052 17.3383L45.5052 17.3382V17.3382C45.4889 17.0648 45.4727 16.7912 45.4051 16.5267C45.3863 16.1301 45.2964 15.7394 45.2071 15.3515C45.1889 15.2726 45.1708 15.1938 45.1533 15.1152C44.2112 11.1589 41.4711 7.68472 37.8626 5.88695C34.9269 4.40628 31.4624 4.01523 28.2829 4.84362ZM7.84957 37.4109L14.4253 29.5957C14.5357 29.4691 14.6428 29.3392 14.7499 29.2094C14.9283 28.993 15.1068 28.7766 15.3006 28.5748C15.3944 29.2382 15.5107 29.898 15.627 30.5579L15.627 30.558L15.627 30.5581L15.6271 30.5581L15.6271 30.5582L15.6271 30.5582L15.6271 30.5582L15.6271 30.5583C15.7103 31.0302 15.7935 31.5022 15.8684 31.9756C15.9302 32.3715 15.9997 32.7661 16.0691 33.1608L16.0692 33.1613L16.0692 33.1614C16.1498 33.6193 16.2304 34.0771 16.299 34.5368C16.757 34.1637 17.2044 33.7773 17.6518 33.3908L17.6519 33.3908L17.6519 33.3908L17.6519 33.3908L17.6519 33.3908L17.6519 33.3908L17.652 33.3907C17.9364 33.1451 18.2208 32.8994 18.5081 32.6571C18.8757 32.3424 19.2429 32.0273 19.6101 31.7121C20.258 31.156 20.9059 30.5999 21.5562 30.0464C22.196 30.6109 22.8747 31.1312 23.596 31.5856C23.9104 31.7803 24.2269 31.9708 24.5544 32.1426C23.9793 32.9981 23.5298 33.9478 23.2995 34.9587C23.2952 34.9756 23.2913 34.993 23.2874 35.0106C23.2673 35.1008 23.2462 35.1954 23.1644 35.2497C21.8028 36.348 20.441 37.446 19.0791 38.544L19.0559 38.5627C17.249 40.0196 15.442 41.4764 13.6357 42.934C13.6372 41.5918 13.6418 40.2495 13.6465 38.9073C13.6517 37.4159 13.6569 35.9245 13.6577 34.4331L13.2841 34.6513C11.2595 35.8343 9.23451 37.0174 7.20345 38.1887C7.24781 38.1206 7.29923 38.058 7.35064 37.9955C7.39123 37.946 7.43183 37.8966 7.46894 37.8445L7.48629 37.877C7.5489 37.7601 7.63549 37.6612 7.72204 37.5623C7.76558 37.5126 7.8091 37.4629 7.84957 37.4109ZM47.6194 29.0429C47.542 29.504 47.4623 29.9647 47.3826 30.4255C47.2593 31.1383 47.136 31.8511 47.0211 32.5656C46.9802 32.821 46.9346 33.0757 46.8889 33.3304L46.8889 33.3307L46.8889 33.3308C46.8179 33.727 46.747 34.1232 46.6936 34.5224C46.62 34.4937 46.5585 34.4453 46.5017 34.3921C45.7857 33.7755 45.0679 33.161 44.3502 32.5465L44.3487 32.5452C43.4375 31.7651 42.5263 30.9849 41.6188 30.2007C40.9611 30.7497 40.2761 31.2679 39.5416 31.7079C39.2825 31.8649 39.0228 32.0213 38.751 32.1543C39.3061 33.1131 39.7067 34.1692 39.8518 35.2747C41.2934 36.4354 42.734 37.5973 44.1747 38.7593L44.1791 38.7628C45.9034 40.1535 47.6277 41.5443 49.3537 42.9329C49.3524 41.8867 49.3478 40.8403 49.3433 39.794L49.3433 39.7902V39.7902V39.7901V39.7901V39.7901V39.79C49.3356 38.0044 49.3279 36.2188 49.3358 34.4336C50.8257 35.3112 52.3209 36.1801 53.8162 37.0491L53.8248 37.0541C54.4767 37.4329 55.1287 37.8118 55.7802 38.1914C55.7044 38.0674 55.6088 37.9578 55.5099 37.8535C54.4873 36.6372 53.4641 35.4215 52.4409 34.2057L52.4398 34.2044L52.4396 34.2042L52.4394 34.2039L52.4392 34.2037L52.439 34.2035L52.4388 34.2032C50.8614 32.3291 49.2841 30.455 47.7093 28.579C47.6731 28.6784 47.6585 28.7827 47.6439 28.8871L47.6439 28.8873C47.6366 28.9393 47.6293 28.9914 47.6194 29.0429ZM24.0702 36.8134C24.107 35.3333 24.5812 33.8585 25.4455 32.6603C25.48 32.5951 25.5399 32.622 25.5947 32.6467C25.6132 32.655 25.6311 32.6631 25.6473 32.6672C27.6966 33.5658 29.9451 33.9819 32.1758 33.9106C33.0117 33.895 33.8391 33.7664 34.6633 33.6384L34.7192 33.6297C34.9093 33.5751 35.1013 33.5266 35.2934 33.4781C35.5809 33.4055 35.8687 33.3328 36.1507 33.2397C36.5893 33.116 37.0118 32.9458 37.4342 32.7757C37.5693 32.7213 37.7043 32.6669 37.8399 32.614C38.3861 33.5164 38.7589 34.5326 38.8735 35.5871C38.9397 36.3431 38.8955 37.1151 38.6774 37.8445C38.4403 38.6718 38.0176 39.4763 37.3431 40.0206C36.9546 40.3419 36.4457 40.4457 35.9589 40.4957C34.7749 40.5845 33.5973 40.3009 32.4828 39.92C32.5731 39.8059 32.6853 39.715 32.7976 39.624L32.7976 39.624L32.7976 39.624L32.7976 39.6239C32.8565 39.5762 32.9154 39.5284 32.9712 39.4773C33.4995 39.0411 34.0647 38.591 34.7523 38.4617C35.1328 38.3771 35.519 38.4339 35.8986 38.4896L36.0135 38.5064C36.38 38.5463 36.6533 38.093 36.4767 37.7738C36.105 37.1444 35.7833 36.4463 35.7838 35.6988C35.7859 35.2498 35.9915 34.8098 36.3489 34.5405C36.6339 34.3001 36.5214 33.7819 36.1665 33.6786C35.8327 33.5625 35.5672 33.8561 35.3645 34.0804L35.3627 34.0825C34.8843 34.6225 34.7234 35.379 34.7944 36.0872C34.2051 35.7594 33.5316 35.5956 32.8613 35.5817C32.2047 35.5732 31.5728 35.8164 31.0202 36.1595C30.9718 36.1298 30.9215 36.1036 30.8712 36.0773L30.8712 36.0773C30.8008 36.0405 30.7306 36.0038 30.6659 35.9579C30.015 35.7174 29.3037 35.6419 28.6224 35.785C28.707 35.6089 28.7696 35.412 28.727 35.2152C28.6592 34.9007 28.4305 34.6597 28.2092 34.4442C28.073 34.3112 27.909 34.1697 27.7071 34.1862C27.3901 34.1851 27.1336 34.5368 27.2392 34.8417C27.271 34.9579 27.3535 35.0389 27.4364 35.1202C27.5003 35.1829 27.5645 35.2458 27.6057 35.3253C27.7581 35.5887 27.6588 35.9329 27.479 36.1537C26.8507 36.4719 26.2041 36.8491 25.8266 37.4716C25.5343 37.9318 25.5212 38.5692 25.8377 39.0214C26.2051 39.5662 26.9601 39.9014 27.5799 39.6018C28.3285 39.2715 28.9867 38.7697 29.6328 38.2728C30.1544 37.8599 30.6706 37.4396 31.158 36.9869C31.803 36.69 32.5222 36.5394 33.2304 36.6309C33.8281 36.7059 34.4022 36.9672 34.8527 37.3721C33.9064 37.4306 33.019 37.8717 32.3051 38.4872C31.926 38.8022 31.5969 39.1736 31.2973 39.5657C31.2855 39.6019 31.2555 39.6272 31.2259 39.6522C31.2107 39.665 31.1957 39.6777 31.1832 39.6918C31.0731 39.7856 30.9642 39.8815 30.8551 39.9776C30.4146 40.3654 29.9719 40.7551 29.4452 41.0187C28.7034 41.4246 27.8065 41.5369 26.9942 41.3001C26.0106 41.0139 25.1784 40.2994 24.6669 39.4108C24.2148 38.6293 24.0686 37.7078 24.0702 36.8134ZM27.2745 37.4391C27.0143 37.6211 26.734 37.8301 26.6284 38.1446C26.5458 38.4276 26.8229 38.6665 27.0763 38.6963C27.2762 38.6648 27.4524 38.5562 27.6246 38.45C27.6621 38.4269 27.6993 38.4039 27.7366 38.3819C28.4742 37.8966 29.1776 37.3572 29.8442 36.7767C28.941 36.6065 28.0236 36.9427 27.2745 37.4391ZM28.7607 42.3535C29.5718 42.162 30.3221 41.7539 30.9645 41.2224C31.117 41.0961 31.2663 40.9657 31.4157 40.8353C31.4764 40.7823 31.5371 40.7293 31.598 40.6765C32.6883 41.107 33.8302 41.4273 35.001 41.5134C35.1204 44.3051 35.2336 47.0962 35.3468 49.8868L35.348 49.9154C34.9477 49.8951 34.5472 49.8851 34.1466 49.875H34.1465H34.1464C33.8221 49.8669 33.4977 49.8588 33.1736 49.8452C33.0996 49.845 33.0254 49.8416 32.9512 49.8381C32.7712 49.8297 32.5911 49.8213 32.4139 49.8601C32.1962 48.8812 31.987 47.9006 31.7778 46.9201L31.7777 46.9194L31.7776 46.9188C31.6372 46.261 31.4969 45.6033 31.354 44.9462C31.2747 44.6312 30.9003 44.4269 30.6012 44.5573C30.4046 44.62 30.2663 44.8046 30.2322 45.0068C30.1036 45.6341 29.9816 46.2629 29.8597 46.8916C29.7377 47.5204 29.6157 48.1491 29.4872 48.7763C29.4665 48.8888 29.4439 49.0011 29.4214 49.1133L29.4213 49.1134C29.374 49.3488 29.3266 49.5844 29.2964 49.8229C29.0064 49.8507 28.7152 49.8563 28.424 49.862H28.4239C28.2637 49.8651 28.1036 49.8682 27.9437 49.875L27.6875 49.8812C27.2813 49.891 26.8753 49.9009 26.4696 49.9176C26.5458 48.2778 26.6272 46.639 26.7087 44.9999L26.709 44.994L26.709 44.9939C26.7534 44.1019 26.7977 43.2097 26.8412 42.3174C27.4684 42.4706 28.1282 42.4812 28.7607 42.3535ZM27.8628 51.2987C27.3959 51.3014 26.928 51.3067 26.4623 51.3376C26.4649 52.6315 26.4644 53.926 26.4628 55.2204C26.4712 55.5035 26.2514 55.7716 25.9718 55.8067C25.1742 55.9312 24.373 56.1068 23.6407 56.4601C23.9178 56.5479 24.209 56.5652 24.4997 56.5825C24.6402 56.5908 24.7806 56.5991 24.9193 56.6154C25.8161 56.6442 26.7188 56.6399 27.6099 56.5282C27.6986 56.5255 27.7859 56.5111 27.8732 56.4967C27.9065 56.4912 27.9398 56.4857 27.9732 56.4808C28.2492 55.1075 28.5177 53.7326 28.7862 52.3578L29.001 51.2588C28.6209 51.2631 28.2418 51.2785 27.8628 51.2987ZM33.8271 56.4766C33.457 54.7325 33.0832 52.9901 32.7052 51.2482C33.158 51.2575 33.6104 51.2722 34.063 51.287C34.4927 51.3009 34.9226 51.3149 35.3528 51.3243C35.354 52.0671 35.3538 52.81 35.3536 53.5528C35.3535 54.1103 35.3534 54.6677 35.3538 55.2252C35.3401 55.4928 35.5478 55.7466 35.8044 55.7993C36.6161 55.9339 37.4436 56.0919 38.1832 56.4734C37.6249 56.583 37.054 56.608 36.4873 56.6266C35.5983 56.6426 34.7066 56.6128 33.8271 56.4766Z" fill="black"/>
<path d="M26.6363 12.0746C26.9401 12.0363 27.2472 12.0427 27.5531 12.0421C30.514 12.0427 33.4743 12.0421 36.4347 12.0427C36.7832 12.049 37.1334 12.0325 37.4803 12.0762C39.3756 12.2384 41.2298 13.1701 42.3937 14.7114C42.9189 15.4052 43.3011 16.2176 43.4599 17.0795C43.7044 18.3266 43.4957 19.6578 42.8848 20.7687C42.0552 22.3094 40.5527 23.4129 38.9019 23.8976C38.27 24.0742 37.6175 24.1817 36.9614 24.1923C33.7009 24.1977 30.4404 24.1913 27.1799 24.1902C25.1727 24.1647 23.156 23.2857 21.8706 21.7056C21.0536 20.7139 20.5626 19.4375 20.5747 18.1409C20.5537 16.8667 21.0226 15.6095 21.8059 14.6199C22.9715 13.1349 24.7826 12.2384 26.6363 12.0746Z" fill="black"/>
<path fill-rule="evenodd" clip-rule="evenodd" d="M37.8626 5.88697C34.9269 4.4063 31.4624 4.01525 28.2829 4.84364C25.4897 5.55604 22.9405 7.18568 21.0815 9.40961C18.9728 11.9097 17.7631 15.1838 17.7994 18.4756C17.8954 18.6228 17.9394 18.7925 17.9831 18.9612C17.9956 19.0095 18.0081 19.0578 18.0218 19.1055C18.7231 21.4843 20.1715 23.6114 22.0541 25.1926C25.0018 27.6921 28.94 28.8674 32.7578 28.6322C34.8665 28.4891 36.9552 27.9097 38.8052 26.868C40.3277 26.0146 41.6867 24.8574 42.7539 23.464C43.8705 22.0126 44.6638 20.3111 45.0744 18.5197C45.2199 17.935 45.2984 17.3379 45.3768 16.7414C45.3862 16.6698 45.3956 16.5983 45.4051 16.5267C45.3863 16.1301 45.2964 15.7394 45.2071 15.3514C45.1889 15.2726 45.1708 15.1939 45.1533 15.1152C44.2112 11.159 41.4711 7.68473 37.8626 5.88697ZM21.8059 14.6199C22.9714 13.135 24.7826 12.2385 26.6363 12.0746C26.8994 12.0414 27.1649 12.0418 27.4301 12.0421C27.4711 12.0422 27.5121 12.0422 27.5531 12.0421C29.0335 12.0424 30.5139 12.0424 31.9941 12.0424C33.4743 12.0424 34.9545 12.0424 36.4347 12.0427C36.5307 12.0444 36.6269 12.0445 36.7232 12.0445C36.976 12.0445 37.229 12.0446 37.4803 12.0762C39.3756 12.2385 41.2298 13.1701 42.3937 14.7114C42.9189 15.4052 43.3011 16.2176 43.4599 17.0795C43.7044 18.3266 43.4956 19.6578 42.8848 20.7687C42.0552 22.3095 40.5526 23.4129 38.9019 23.8976C38.27 24.0742 37.6175 24.1817 36.9614 24.1923C34.7198 24.196 32.4782 24.1941 30.2366 24.1923C29.2177 24.1914 28.1988 24.1905 27.1799 24.1902C25.1726 24.1647 23.156 23.2858 21.8706 21.7056C21.0536 20.7139 20.5626 19.4375 20.5747 18.1409C20.5536 16.8667 21.0226 15.6095 21.8059 14.6199Z" fill="#F3F3F3"/>
<path fill-rule="evenodd" clip-rule="evenodd" d="M24.0986 16.748C24.1527 16.4192 24.5008 16.1814 24.823 16.2628C27.0468 16.7092 29.2696 17.162 31.4939 17.6062C31.6495 17.6323 31.8025 17.6882 31.9613 17.6882C34.3696 17.2216 36.7769 16.7491 39.1847 16.2788C39.3277 16.2463 39.4844 16.2367 39.6205 16.3027C39.8871 16.416 40.048 16.7406 39.9623 17.0231C39.9013 17.2428 39.7125 17.4248 39.4875 17.4599C38.5029 17.644 37.5245 17.8605 36.5372 18.0297C36.6176 18.2255 36.7301 18.4096 36.7674 18.6214C36.8221 18.9603 36.8106 19.3221 36.6649 19.6381C36.4567 20.1265 36.0115 20.5074 35.4957 20.6181C34.9637 20.7479 34.3754 20.5771 33.9853 20.1909C33.5679 19.8051 33.3871 19.188 33.5053 18.6309C33.0275 18.7139 32.5543 18.8203 32.0785 18.9108C31.8604 18.9571 31.6453 18.8757 31.4324 18.839C31.1459 18.7858 30.8641 18.7081 30.5744 18.674C30.6938 19.2784 30.4399 19.9403 29.9515 20.3079C29.3479 20.7974 28.4111 20.7665 27.8407 20.2382C27.2277 19.7163 27.0763 18.7246 27.5431 18.0569C26.5474 17.8536 25.5517 17.6509 24.5554 17.4498C24.2521 17.3886 24.035 17.055 24.0986 16.748Z" fill="black"/>
<path fill-rule="evenodd" clip-rule="evenodd" d="M45.0744 18.5197C45.2374 17.8648 45.3163 17.1944 45.4051 16.5267C45.5082 16.93 45.4919 17.3546 45.5381 17.7669C45.6007 19.2502 45.4461 20.7458 45.0487 22.177C44.0887 25.7624 41.6352 28.8913 38.4367 30.7029C36.4247 31.8532 34.1221 32.4911 31.8094 32.4996C29.6119 32.5278 27.4096 32.0107 25.4461 31.0126C23.7285 30.1395 22.1955 28.8988 20.9737 27.3974C18.9429 24.9138 17.7689 21.7051 17.7994 18.4756C17.923 18.665 17.9603 18.8916 18.0218 19.1055C18.7231 21.4843 20.1715 23.6114 22.0541 25.1926C25.0018 27.6921 28.94 28.8674 32.7578 28.6322C34.8665 28.4891 36.9552 27.9097 38.8052 26.868C40.3277 26.0146 41.6867 24.8574 42.7539 23.464C43.8705 22.0126 44.6638 20.3111 45.0744 18.5197Z" fill="#C3C5CB"/>
<path fill-rule="evenodd" clip-rule="evenodd" d="M14.4252 29.5957C14.7197 29.2579 14.9904 28.8977 15.3006 28.5748C15.4614 29.7128 15.6886 30.8402 15.8684 31.9756C16.0019 32.8311 16.1712 33.6808 16.2989 34.5368C17.0481 33.9266 17.7688 33.2807 18.508 32.6571C19.5242 31.7872 20.5373 30.9136 21.5561 30.0464C22.1959 30.6109 22.8747 31.1312 23.5959 31.5856C20.7381 34.2463 17.875 36.9017 15.0198 39.5656C14.9604 39.6173 14.8958 39.663 14.8316 39.7088C14.7459 38.3558 14.7002 36.9996 14.6203 35.6456C14.543 34.4368 14.5178 33.2248 14.4195 32.0176C12.1447 33.9399 9.89037 35.8882 7.61872 37.8147C7.57771 37.8418 7.53355 37.8626 7.48624 37.877C7.58034 37.7014 7.72859 37.5662 7.84951 37.4109C10.0412 34.806 12.2335 32.2006 14.4252 29.5957Z" fill="#FBB03B"/>
<path fill-rule="evenodd" clip-rule="evenodd" d="M47.6193 29.043C47.6493 28.8881 47.6551 28.728 47.7092 28.579C50.3063 31.6728 52.9102 34.7613 55.5099 37.8535C55.4557 37.8663 55.4089 37.8541 55.37 37.8163C53.0979 35.8898 50.8441 33.9399 48.5672 32.0181C48.4552 33.5956 48.4021 35.1774 48.307 36.7559C48.2539 37.7392 48.2213 38.724 48.1582 39.7061C47.817 39.4667 47.5405 39.1459 47.2261 38.8729C45.0711 36.8677 42.9146 34.8635 40.7597 32.8582C40.3538 32.4746 39.9322 32.1075 39.5416 31.7079C40.276 31.2679 40.961 30.7497 41.6187 30.2007C43.2416 31.6031 44.8761 32.9923 46.5016 34.3921C46.5584 34.4453 46.6199 34.4937 46.6935 34.5224C46.7813 33.8664 46.9164 33.2184 47.021 32.5656C47.2103 31.3893 47.4222 30.2172 47.6193 29.043Z" fill="#FBB03B"/>
<path fill-rule="evenodd" clip-rule="evenodd" d="M23.596 31.5856C23.9104 31.7803 24.2269 31.9708 24.5544 32.1426C23.9793 32.9982 23.5298 33.9479 23.2995 34.9587C23.2732 35.0625 23.2622 35.1849 23.1644 35.2498C19.9885 37.8115 16.811 40.3717 13.6357 42.934C13.6388 40.1004 13.6562 37.2667 13.6578 34.4331C11.5086 35.6887 9.35945 36.9454 7.20346 38.1888C7.28284 38.0669 7.38483 37.9626 7.46895 37.8445L7.4863 37.877C7.53361 37.8626 7.57778 37.8419 7.61878 37.8147C9.89043 35.8882 12.1447 33.9399 14.4195 32.0176C14.5178 33.2248 14.5431 34.4368 14.6204 35.6456C14.7003 36.9996 14.746 38.3558 14.8317 39.7088C14.8958 39.663 14.9605 39.6173 15.0199 39.5657C17.8751 36.9017 20.7382 34.2463 23.596 31.5856Z" fill="#DD7E1F"/>
<path fill-rule="evenodd" clip-rule="evenodd" d="M38.751 32.1543C39.0228 32.0213 39.2825 31.8649 39.5416 31.7079C39.9323 32.1075 40.3539 32.4746 40.7597 32.8582C42.9147 34.8635 45.0712 36.8677 47.2261 38.8729C47.5405 39.1459 47.817 39.4667 48.1582 39.7061C48.2213 38.724 48.2539 37.7392 48.307 36.7559C48.4022 35.1774 48.4553 33.5956 48.5672 32.0181C50.8442 33.9399 53.0979 35.8898 55.3701 37.8163C55.409 37.8541 55.4558 37.8663 55.5099 37.8535C55.6088 37.9578 55.7045 38.0674 55.7802 38.1914C53.6315 36.9395 51.4782 35.6956 49.3359 34.4336C49.3232 37.2662 49.35 40.0998 49.3537 42.9329C46.1841 40.3829 43.0204 37.8259 39.8518 35.2747C39.7067 34.1692 39.3061 33.1131 38.751 32.1543Z" fill="#DD7E1F"/>
<path fill-rule="evenodd" clip-rule="evenodd" d="M25.4455 32.6603C25.4917 32.5731 25.5832 32.6507 25.6473 32.6672C27.6966 33.5659 29.9451 33.9819 32.1758 33.9106C33.0306 33.8947 33.8765 33.7606 34.7192 33.6297C33.9863 34.0181 33.1909 34.2777 32.3876 34.4703C31.5633 34.665 30.7164 34.7629 29.8699 34.7592C30.1643 35.138 30.4514 35.5264 30.6659 35.9579C30.015 35.7174 29.3037 35.6419 28.6224 35.785C28.707 35.6089 28.7696 35.412 28.727 35.2152C28.6592 34.9007 28.4305 34.6597 28.2092 34.4443C28.073 34.3112 27.909 34.1697 27.7071 34.1862C27.3901 34.1851 27.1336 34.5368 27.2392 34.8417C27.2955 35.0476 27.511 35.1428 27.6057 35.3253C27.7581 35.5887 27.6588 35.9329 27.479 36.1537C26.8507 36.4719 26.2041 36.8491 25.8266 37.4716C25.5343 37.9318 25.5212 38.5692 25.8377 39.0214C26.2051 39.5662 26.9601 39.9014 27.5799 39.6018C28.3285 39.2715 28.9867 38.7697 29.6328 38.2728C30.1544 37.8599 30.6706 37.4396 31.158 36.9869C31.2952 37.503 31.4419 38.0265 31.4213 38.5676C31.4376 38.9065 31.3293 39.231 31.2973 39.5657C31.2794 39.6205 31.22 39.6503 31.1832 39.6918C30.6286 40.1647 30.1023 40.6899 29.4452 41.0187C28.7034 41.4246 27.8065 41.5369 26.9942 41.3001C26.0106 41.0139 25.1784 40.2994 24.6669 39.4108C24.2147 38.6293 24.0686 37.7078 24.0702 36.8134C24.107 35.3333 24.5812 33.8585 25.4455 32.6603Z" fill="#165EA0"/>
<path fill-rule="evenodd" clip-rule="evenodd" d="M27.2745 37.4391C28.0236 36.9427 28.941 36.6065 29.8442 36.7767C29.1776 37.3572 28.4742 37.8967 27.7366 38.3819C27.5279 38.5053 27.3197 38.658 27.0763 38.6963C26.8229 38.6665 26.5458 38.4276 26.6284 38.1446C26.734 37.8301 27.0143 37.6211 27.2745 37.4391Z" fill="#165EA0"/>
<path fill-rule="evenodd" clip-rule="evenodd" d="M26.8412 42.3174C27.4684 42.4706 28.1282 42.4813 28.7607 42.3536C28.7312 42.8675 28.6534 43.3767 28.6035 43.8885C28.3748 45.8831 28.1671 47.8799 27.9437 49.875C27.4521 49.8873 26.9606 49.8974 26.4696 49.9176C26.5873 47.3835 26.7177 44.8515 26.8412 42.3174Z" fill="#165EA0"/>
<path fill-rule="evenodd" clip-rule="evenodd" d="M36.1508 33.2397C36.7296 33.0764 37.2805 32.8322 37.8399 32.614C38.3861 33.5164 38.7589 34.5326 38.8735 35.5871C38.9397 36.3431 38.8956 37.1151 38.6774 37.8445C38.4403 38.6718 38.0176 39.4763 37.3431 40.0206C36.9546 40.3419 36.4457 40.4457 35.9589 40.4957C34.775 40.5845 33.5973 40.3009 32.4828 39.92C32.6205 39.746 32.8093 39.6258 32.9712 39.4773C33.4996 39.0411 34.0647 38.591 34.7523 38.4617C35.1713 38.3686 35.5972 38.4468 36.0136 38.5064C36.38 38.5463 36.6534 38.093 36.4767 37.7738C36.105 37.1444 35.7833 36.4463 35.7838 35.6988C35.7859 35.2498 35.9915 34.8098 36.349 34.5405C36.6339 34.3001 36.5214 33.7819 36.1665 33.6786C35.8317 33.5621 35.5656 33.8579 35.3627 34.0825C34.8843 34.6225 34.7234 35.379 34.7944 36.0872C34.2051 35.7595 33.5316 35.5956 32.8613 35.5817C32.2047 35.5732 31.5728 35.8164 31.0202 36.1595C30.9041 36.0883 30.7768 36.0366 30.6659 35.9579C30.4514 35.5264 30.1644 35.138 29.87 34.7592C30.7164 34.7629 31.5633 34.665 32.3876 34.4703C33.191 34.2777 33.9864 34.0181 34.7192 33.6297C35.194 33.4935 35.6802 33.3951 36.1508 33.2397Z" fill="#3094ED"/>
<path fill-rule="evenodd" clip-rule="evenodd" d="M31.1581 36.9869C31.8031 36.69 32.5223 36.5394 33.2305 36.6309C33.8282 36.7059 34.4023 36.9672 34.8529 37.3721C33.9066 37.4306 33.0191 37.8716 32.3052 38.4872C31.9262 38.8022 31.5971 39.1735 31.2974 39.5657C31.3295 39.231 31.4378 38.9065 31.4215 38.5676C31.442 38.0265 31.2953 37.5029 31.1581 36.9869Z" fill="#3094ED"/>
<path fill-rule="evenodd" clip-rule="evenodd" d="M30.9646 41.2224C31.1791 41.0447 31.3873 40.859 31.5981 40.6765C32.6884 41.107 33.8303 41.4273 35.0011 41.5134C35.1209 44.3146 35.2345 47.1153 35.348 49.9154C34.6236 49.8787 33.8981 49.8755 33.1737 49.8452C32.9203 49.8447 32.6642 49.8053 32.414 49.8601C32.0502 48.2241 31.71 46.5833 31.3541 44.9462C31.2747 44.6312 30.9004 44.4269 30.6013 44.5573C30.4047 44.62 30.2664 44.8046 30.2322 45.0068C29.9752 46.2614 29.7444 47.5218 29.4873 48.7763C29.4232 49.1248 29.3411 49.4706 29.2965 49.8229C28.847 49.8659 28.3943 49.8558 27.9438 49.875C28.1672 47.8798 28.3749 45.8831 28.6036 43.8885C28.6535 43.3767 28.7313 42.8675 28.7607 42.3535C29.5719 42.162 30.3221 41.7539 30.9646 41.2224Z" fill="#3094ED"/>
<path fill-rule="evenodd" clip-rule="evenodd" d="M27.8628 51.2994C28.2418 51.2792 28.6209 51.2638 29.001 51.2595C28.6603 53.0004 28.3228 54.7423 27.9732 56.4815C27.8523 56.4991 27.7324 56.5251 27.6099 56.5289C27.5363 56.5204 27.4632 56.5118 27.3907 56.5033C27.5353 55.0658 27.6719 53.6277 27.8092 52.189C27.8349 51.8932 27.8885 51.5974 27.8628 51.2994Z" fill="#C1272D"/>
<path fill-rule="evenodd" clip-rule="evenodd" d="M32.7052 51.2482C33.5879 51.2663 34.4695 51.3051 35.3528 51.3243C35.3549 52.6246 35.3528 53.9249 35.3538 55.2252C35.3401 55.4928 35.5478 55.7466 35.8043 55.7993C36.6161 55.9339 37.4436 56.0919 38.1832 56.4734C37.6249 56.583 37.054 56.608 36.4873 56.6266C35.5983 56.6426 34.7066 56.6128 33.8271 56.4766C33.457 54.7325 33.0832 52.9901 32.7052 51.2482Z" fill="#C1272D"/>
<path fill-rule="evenodd" clip-rule="evenodd" d="M26.4623 51.3376C26.928 51.3067 27.3959 51.3014 27.8628 51.2987C27.8885 51.5967 27.8349 51.8925 27.8092 52.1883C27.6719 53.6269 27.5353 55.065 27.3907 56.5026C27.4632 56.5111 27.5363 56.5196 27.6099 56.5282C26.7188 56.6399 25.8161 56.6441 24.9193 56.6154C24.4939 56.5654 24.0518 56.5904 23.6407 56.4601C24.373 56.1068 25.1742 55.9312 25.9718 55.8067C26.2514 55.7716 26.4712 55.5034 26.4628 55.2204C26.4644 53.9259 26.4649 52.6315 26.4623 51.3376Z" fill="#8E232A"/>
<path fill-rule="evenodd" clip-rule="evenodd" d="M29.2585 55.9756C29.605 55.9742 29.9514 55.9871 30.2974 55.9634C30.7432 55.9545 31.19 55.9545 31.6364 55.9634C31.9397 55.9871 32.2436 55.9681 32.5475 55.9837C32.6179 56.4725 32.7004 56.9586 32.7872 57.4434C32.8382 57.7244 33.0238 57.9471 33.2425 58.0035C33.7393 58.1433 34.2476 58.2119 34.7544 58.2553C35.716 58.3443 36.6833 58.3341 37.6443 58.2275C38.1206 58.1596 38.6043 58.0897 39.0554 57.8677C39.3009 57.7475 39.5522 57.5642 39.6747 57.2492C39.7872 56.9844 39.7898 56.6606 39.702 56.3836C40.9832 56.554 42.2691 56.7122 43.5293 57.0659C43.9341 57.1929 44.3489 57.3157 44.7163 57.5778C44.8451 57.6735 45.0144 57.8752 44.9003 58.0788C44.669 58.4189 44.3026 58.5181 43.9824 58.6545C42.8201 59.0456 41.6219 59.2207 40.4301 59.3891C37.8615 59.7082 35.2812 59.8433 32.7015 59.8942C29.8247 59.9438 26.9459 59.8752 24.0739 59.6512C22.3847 59.5093 20.694 59.3382 19.0253 58.9587C18.4276 58.812 17.8151 58.6769 17.2652 58.3259C17.1296 58.2275 16.9403 58.072 17.0029 57.8351C17.118 57.5778 17.3557 57.478 17.5575 57.3741C18.3204 57.0286 19.1237 56.8724 19.9206 56.7237C20.6456 56.5947 21.3727 56.4861 22.1024 56.4067C21.9657 56.8371 22.0966 57.3605 22.3915 57.6212C22.7185 57.9111 23.116 58.0259 23.5008 58.1162C24.4755 58.3158 25.4654 58.3307 26.4496 58.3029C27.1672 58.2472 27.8906 58.2031 28.594 57.9953C28.8111 57.9363 28.9852 57.7027 29.0283 57.423C29.1113 56.9423 29.176 56.4563 29.2585 55.9756Z" fill="#808080"/>
</svg>
