<svg width="276" height="51" viewBox="0 0 276 51" fill="none" xmlns="http://www.w3.org/2000/svg">
<path d="M102.52 1.536C107.939 1.536 112.483 2.816 116.152 5.376C119.864 7.936 122.552 11.3067 124.216 15.488C125.453 18.3893 126.072 21.5893 126.072 25.088C126.072 28.544 125.453 31.7653 124.216 34.752C122.552 38.9333 119.864 42.304 116.152 44.864C112.44 47.424 107.896 48.704 102.52 48.704H97.912C97.6987 48.704 97.5067 48.64 97.336 48.512C97.208 48.384 97.144 48.2133 97.144 48C97.144 47.7867 97.208 47.616 97.336 47.488C97.5067 47.3173 97.6987 47.232 97.912 47.232H102.52C107.597 47.232 111.864 46.0373 115.32 43.648C118.776 41.2587 121.293 38.1013 122.872 34.176C124.024 31.2747 124.6 28.2453 124.6 25.088C124.6 21.888 124.024 18.88 122.872 16.064C121.293 12.1387 118.776 8.98133 115.32 6.592C111.864 4.20267 107.597 3.008 102.52 3.008H89.592V48C89.592 48.2133 89.5067 48.384 89.336 48.512C89.208 48.64 89.0373 48.704 88.824 48.704C88.6533 48.704 88.4827 48.64 88.312 48.512C88.184 48.384 88.12 48.2133 88.12 48V2.24C88.12 2.02666 88.184 1.856 88.312 1.728C88.4827 1.6 88.6533 1.536 88.824 1.536H102.52ZM98.744 29.696C98.744 29.8667 98.6587 30.0373 98.488 30.208C98.36 30.336 98.1893 30.4 97.976 30.4C97.7627 30.4 97.5707 30.336 97.4 30.208C97.272 30.0373 97.208 29.8667 97.208 29.696V11.392C97.208 11.1787 97.272 11.008 97.4 10.88C97.5707 10.7093 97.7627 10.624 97.976 10.624H102.52C105.72 10.624 108.429 11.4133 110.648 12.992C112.867 14.5707 114.467 16.64 115.448 19.2C116.173 20.9493 116.536 22.912 116.536 25.088C116.536 27.264 116.173 29.2267 115.448 30.976C114.467 33.536 112.867 35.6267 110.648 37.248C108.429 38.8267 105.72 39.616 102.52 39.616H97.976C97.8053 39.616 97.6347 39.5307 97.464 39.36C97.2933 39.1893 97.208 39.0187 97.208 38.848C97.208 38.6347 97.2933 38.464 97.464 38.336C97.6347 38.1653 97.8053 38.08 97.976 38.08H102.52C105.379 38.08 107.789 37.3973 109.752 36.032C111.715 34.624 113.165 32.768 114.104 30.464C114.744 28.7147 115.064 26.9227 115.064 25.088C115.064 23.2107 114.744 21.44 114.104 19.776C113.165 17.472 111.715 15.616 109.752 14.208C107.789 12.8 105.379 12.096 102.52 12.096H98.744V29.696ZM159.131 47.232C159.344 47.232 159.515 47.3173 159.643 47.488C159.771 47.616 159.835 47.7867 159.835 48C159.835 48.2133 159.771 48.384 159.643 48.512C159.515 48.64 159.344 48.704 159.131 48.704H135.451C135.237 48.704 135.045 48.64 134.875 48.512C134.747 48.384 134.683 48.2133 134.683 48V2.24C134.683 2.02666 134.747 1.856 134.875 1.728C135.045 1.6 135.237 1.536 135.451 1.536H159.131C159.344 1.536 159.515 1.6 159.643 1.728C159.771 1.856 159.835 2.02666 159.835 2.24C159.835 2.45333 159.771 2.64533 159.643 2.816C159.515 2.944 159.344 3.008 159.131 3.008H136.155V47.232H159.131ZM159.131 10.688C159.344 10.688 159.515 10.752 159.643 10.88C159.771 11.008 159.835 11.1787 159.835 11.392C159.835 11.6053 159.771 11.7973 159.643 11.968C159.515 12.096 159.344 12.16 159.131 12.16H145.307V19.776H154.843C155.056 19.776 155.227 19.8613 155.355 20.032C155.525 20.16 155.611 20.3307 155.611 20.544C155.611 20.7573 155.525 20.9493 155.355 21.12C155.227 21.248 155.056 21.312 154.843 21.312H144.603C144.389 21.312 144.197 21.248 144.027 21.12C143.899 20.9493 143.835 20.7573 143.835 20.544V11.392C143.835 11.1787 143.899 11.008 144.027 10.88C144.197 10.752 144.389 10.688 144.603 10.688H159.131ZM154.843 28.928C155.056 28.928 155.227 29.0133 155.355 29.184C155.525 29.312 155.611 29.4827 155.611 29.696C155.611 29.9093 155.525 30.08 155.355 30.208C155.227 30.336 155.056 30.4 154.843 30.4H145.307V38.08H159.131C159.344 38.08 159.515 38.1653 159.643 38.336C159.771 38.464 159.835 38.6347 159.835 38.848C159.835 39.0187 159.771 39.1893 159.643 39.36C159.515 39.488 159.344 39.552 159.131 39.552H144.603C144.389 39.552 144.197 39.488 144.027 39.36C143.899 39.232 143.835 39.0613 143.835 38.848V29.696C143.835 29.4827 143.899 29.312 144.027 29.184C144.197 29.0133 144.389 28.928 144.603 28.928H154.843ZM201.521 2.688C201.734 2.304 202.075 2.176 202.545 2.304C202.715 2.34666 202.843 2.47466 202.929 2.688C203.014 2.85866 203.014 3.02933 202.929 3.2L183.985 49.536C183.857 49.8773 183.643 50.048 183.345 50.048C183.003 50.048 182.769 49.8773 182.641 49.536L163.761 3.2L163.697 3.008C163.697 2.66667 163.846 2.432 164.145 2.304C164.23 2.26133 164.337 2.24 164.465 2.24C164.806 2.24 165.041 2.38933 165.169 2.688L183.345 47.36L201.521 2.688ZM173.681 2.944C173.681 2.64533 173.851 2.432 174.193 2.304L174.449 2.24C174.833 2.24 175.046 2.38933 175.089 2.688L183.345 22.784L191.537 2.688C191.665 2.38933 191.878 2.24 192.177 2.24C192.475 2.24 192.689 2.34666 192.817 2.56C192.945 2.77333 192.966 2.98666 192.881 3.2L183.985 25.024C183.857 25.3227 183.643 25.472 183.345 25.472C183.003 25.472 182.769 25.3227 182.641 25.024L173.745 3.2L173.681 2.944ZM208.878 26.624C208.707 26.624 208.536 26.5387 208.366 26.368C208.195 26.1973 208.11 26.0267 208.11 25.856C208.11 25.6853 208.174 25.536 208.302 25.408C208.472 25.2373 208.664 25.152 208.878 25.152H226.35C226.563 25.152 226.734 25.216 226.862 25.344C226.99 25.472 227.054 25.6427 227.054 25.856C227.054 26.0693 226.968 26.2613 226.798 26.432C226.67 26.56 226.52 26.624 226.35 26.624H208.878Z" fill="black"/>
<path d="M232.042 48.32C231.957 48.4907 231.786 48.5973 231.53 48.64C231.317 48.6827 231.125 48.6613 230.954 48.576C230.783 48.4907 230.677 48.3413 230.634 48.128C230.634 47.9573 230.677 47.7653 230.762 47.552L245.61 23.552L232.554 2.56C232.511 2.47467 232.49 2.34667 232.49 2.176C232.49 1.83466 232.597 1.6 232.81 1.472C232.981 1.38666 233.109 1.344 233.194 1.344C233.45 1.344 233.642 1.472 233.77 1.728L247.146 23.168C247.274 23.4667 247.274 23.7227 247.146 23.936L232.042 48.32ZM243.178 2.496C243.135 2.41066 243.114 2.304 243.114 2.176C243.114 1.83466 243.221 1.6 243.434 1.472C243.605 1.38666 243.733 1.344 243.818 1.344C244.074 1.344 244.309 1.472 244.522 1.728L251.498 12.992L258.41 1.728C258.538 1.55733 258.709 1.45066 258.922 1.408C259.135 1.36533 259.327 1.38666 259.498 1.472C259.669 1.55733 259.775 1.70667 259.818 1.92C259.861 2.13333 259.839 2.32533 259.754 2.496L252.138 14.784C252.01 14.9973 251.797 15.104 251.498 15.104C251.242 15.104 251.007 14.9973 250.794 14.784L243.178 2.496ZM269.162 1.728C269.247 1.55733 269.375 1.45066 269.546 1.408C269.759 1.36533 269.951 1.38666 270.122 1.472C270.293 1.55733 270.399 1.70667 270.442 1.92C270.485 2.13333 270.463 2.34666 270.378 2.56L257.322 23.552L272.17 47.552C272.255 47.7227 272.298 47.872 272.298 48C272.298 48.256 272.191 48.448 271.978 48.576C271.893 48.6187 271.765 48.64 271.594 48.64C271.253 48.64 271.018 48.5333 270.89 48.32L255.786 23.936C255.658 23.7227 255.658 23.4667 255.786 23.168L269.162 1.728ZM260.906 47.616C260.991 47.7867 261.034 47.9147 261.034 48C261.034 48.2133 260.927 48.4267 260.714 48.64C260.629 48.6827 260.501 48.704 260.33 48.704C260.031 48.704 259.818 48.5973 259.69 48.384L251.498 35.136L243.242 48.384C243.157 48.5547 243.007 48.6613 242.794 48.704C242.581 48.7467 242.389 48.704 242.218 48.576C242.047 48.4907 241.941 48.3413 241.898 48.128C241.855 47.9573 241.898 47.7867 242.026 47.616L250.794 33.344C250.965 33.1307 251.199 33.024 251.498 33.024C251.839 33.024 252.053 33.1307 252.138 33.344L260.906 47.616Z" fill="#19D5C9"/>
<path d="M60.3725 18.375C55.3543 18.7099 48.1953 23.6099 44.5722 25.2178C41.7531 26.4715 39.3215 27.5529 37.2 27.5529C35.0106 27.5529 34.6812 26.0025 35.1365 22.5859C35.2431 21.8203 36.27 15.0062 31 15.3029C28.5684 15.4465 24.7709 17.6764 14.5797 27.3615L18.6 17.4371C21.545 10.1732 13.4462 2.93807 6.03528 7.59882L0.716841 11.1303C-3.46068e-05 11.5801 -0.21316 12.5275 0.242153 13.2453L1.9084 15.8293C2.36372 16.5471 3.32278 16.7576 4.04934 16.2982L9.66809 12.5754C11.4506 11.4557 13.6109 13.2644 12.8359 15.1689L3.32278 38.6736C2.66403 40.291 3.58434 42.875 6.19997 42.875C7.00403 42.875 7.7984 42.5687 8.38934 41.9754C12.4775 37.9367 23.3759 27.5529 28.8493 23.2367C28.6362 25.9642 28.6459 28.8736 30.845 31.2566C32.3272 32.8644 34.4584 33.6779 37.1903 33.6779C40.639 33.6779 43.7778 32.2807 47.1006 30.8068C50.2975 29.3904 56.6912 24.8158 60.5081 24.5096C61.3315 24.4426 61.9806 23.8109 61.9806 22.9974V19.9254C62 19.0545 61.254 18.3176 60.3725 18.375Z" fill="black"/>
</svg>
