<svg width="150" height="60" viewBox="0 0 150 60" fill="none" xmlns="http://www.w3.org/2000/svg">
<path d="M72.2188 12.25H85.8125C91.5 12.25 95.4167 14.1771 97.5625 18.0312C99.3542 21.0521 100.25 26.0417 100.25 33H101.594V43.6875H88.375V42.5H92.5V33H91.3125V29.0938C91.3125 24.6979 90.3333 21.8958 88.375 20.6875C87.2083 20.0208 85.3542 19.6875 82.8125 19.6875H81V32.7812H82.2188V43.6875H73.25V33.625H72.2188V12.25ZM91.5312 40.375H91.9688V41.5H92.2188V41.875H91.9688V42.3438H91.5312V41.875H90.7188V41.5938C91.2604 40.8438 91.5312 40.4375 91.5312 40.375ZM91.1562 41.5H91.5312V41.0625C91.4688 41.0625 91.3438 41.2083 91.1562 41.5ZM82.6562 41.4375H83.0938C83.1562 41.4375 83.3125 41.6146 83.5625 41.9688C83.7708 41.7188 83.875 41.5417 83.875 41.4375H84.375V41.5C84.0417 41.9792 83.875 42.2812 83.875 42.4062L84.4688 43.375H83.875C83.875 43.2083 83.75 43.0104 83.5 42.7812C83.3125 43.1562 83.1562 43.3542 83.0312 43.375H82.5938C82.9271 42.7708 83.1458 42.4479 83.25 42.4062L82.6562 41.4375ZM68.2188 43.6875H72.2812V45.125H82.2188V48.0625H88.375V45.125H101.594V48.0625H92.5V56.0312H82.2188V57H72.3438C72.2604 57 72.2188 56.9479 72.2188 56.8438V45.125H68.2188V43.6875ZM82.2188 43.6875H88.375V45.125H82.2188V43.6875ZM101.594 43.6875H110.406V45.125H101.594V43.6875ZM93.5625 48.3438H94.0938C94.4479 49.3229 94.6667 50 94.75 50.375H94.375C94.2917 50.375 94.2188 50.2292 94.1562 49.9375H93.5625C93.4583 49.9375 93.3854 50.0833 93.3438 50.375H92.875V50.3125C92.875 50.2708 93.1042 49.6146 93.5625 48.3438ZM95.2812 48.3438H95.75L96.125 49.625H96.1875C96.1875 49.5417 96.3125 49.1146 96.5625 48.3438H97.0312C97.0312 48.5104 96.8229 49.1875 96.4062 50.375H95.9688C95.8438 50.375 95.6146 49.6979 95.2812 48.3438ZM97.7812 48.3438H98.3125V50.375H97.7812V48.3438ZM99.1875 48.3438H100.031C100.677 48.3438 101 48.7188 101 49.4688C101 49.9896 100.677 50.2917 100.031 50.375H99.1875V48.3438ZM99.7188 48.8125V49.9375H100.188C100.25 49.9375 100.344 49.8333 100.469 49.625V49.0938C100.469 49.0312 100.375 48.9375 100.188 48.8125H99.7188ZM93.7812 48.9688C93.7812 49.0312 93.7292 49.2292 93.625 49.5625H94C93.9167 49.2292 93.875 49.0312 93.875 48.9688H93.7812ZM104.062 12.1875H114.062C115.167 16.2083 117.438 24.2604 120.875 36.3438H124.812C124.917 36.3438 125.344 34.8958 126.094 32C127.76 26.3125 129.625 19.7083 131.688 12.1875H140.938V41.25H141.469V46.5625H138.656V47.5312H141.469V57H133.594V53.5312H134.562V42.7812H132.906V37.4062H131.906L131.844 37.6875H131V45.3438H128.281V48.9062H125.938V54.9688H120.406V51.0938H117V45.7812H114.969V40.2812H113.812C113.771 39.9688 113.521 39.0104 113.062 37.4062H121L120.781 36.3438H112.844L113.062 37.4062H112V44.3438H112.531V52H110.562V53.375H112.531V55.4062H105.406V46.1875H104.062V12.1875ZM111.938 33.1562V33.6875C111.938 34.1458 111.958 35.0312 112 36.3438H112.75C112.25 34.3229 112 33.2604 112 33.1562H111.938ZM132.906 33.2188L132.219 36.3438H132.906C132.948 35.0521 132.969 34.1146 132.969 33.5312V33.2188H132.906ZM109.438 36.3438V37.4062H111.938V36.3438H109.438ZM124.938 36.3438L124.719 37.4062H131.844C132.052 36.8438 132.156 36.4896 132.156 36.3438H124.938ZM132.969 36.3438V37.4062H138.438V36.3438H132.969ZM121.156 37.4062C121.51 39.0104 121.74 39.8125 121.844 39.8125H122.75V43.8125H124.188V37.625H124.562V37.4062H121.156ZM141.469 46.5625H146V47.5312H141.469V46.5625ZM141.906 47.9062H142.281V48.5938H142.906V48.0625C142.906 47.9583 142.958 47.9062 143.062 47.9062H143.188C143.292 47.9271 143.344 47.9792 143.344 48.0625V49.5C143.344 49.6042 143.292 49.6562 143.188 49.6562H142.906V48.9688H142.281V49.6562H141.906V47.9062ZM141.906 50.1875H142.969C143.073 50.2083 143.125 50.2604 143.125 50.3438V50.5625H142.281V50.875H142.969V51.25H142.281V51.9375H141.906V50.1875ZM142 52.4688H143.062C143.146 52.4688 143.188 52.5104 143.188 52.5938V52.75L142.375 53.8125H143.188V54.1875H141.906C141.802 54.1875 141.75 54.1146 141.75 53.9688C141.917 53.7188 142.198 53.3438 142.594 52.8438H141.844V52.5938C141.865 52.5104 141.917 52.4688 142 52.4688ZM141.906 54.7188H142.281V55.7188L142.375 56.0938H142.75C142.854 56.0938 142.906 56.0417 142.906 55.9375V54.875C142.906 54.7708 142.958 54.7188 143.062 54.7188H143.188C143.292 54.7396 143.344 54.7917 143.344 54.875V55.7812C143.344 56.2396 143.115 56.4688 142.656 56.4688H142.531C142.24 56.4688 142.031 56.3438 141.906 56.0938V54.7188ZM103.375 55.7812H111.406V56.4688H103.375V55.7812Z" fill="black"/>
<path fill-rule="evenodd" clip-rule="evenodd" d="M32.222 25.7809L27.828 30.1799L15.583 17.935L8.75678 19.762L7.51478 24.4044L3.69001 14.6848L17.4411 11L20.2048 13.7689L32.222 25.7809ZM17.172 36.8201L29.4169 49.065L36.238 47.238L37.4854 42.5907L43.2558 36.8201L45 38.5589L41.3152 52.3152L27.5589 56L12.778 41.2139L17.172 36.8201ZM8.76195 47.238L6.93495 40.4169L19.1799 28.172L14.7861 23.7728L2.76885 35.7952L0 38.5589L3.69001 52.31L17.4411 56L19.1799 54.2558L13.4096 48.4803L8.76195 47.238ZM25.8201 38.828L38.0702 26.5779L36.2381 19.7568L31.5907 18.5148L25.8201 12.7442L27.5589 11L41.3152 14.6848L45 28.4411L30.2139 43.222L25.8201 38.828ZM3.69 14.6848L0 28.4411L1.7442 30.1799L7.51478 24.4044L3.69 14.6848Z" fill="#1078F1"/>
<path fill-rule="evenodd" clip-rule="evenodd" d="M32.222 25.7809L27.828 30.1799L15.583 17.935L8.75678 19.762L7.51478 24.4044L3.69001 14.6848L17.4411 11L20.2048 13.7689L32.222 25.7809ZM17.172 36.8201L29.4169 49.065L36.238 47.238L37.4854 42.5907L43.2558 36.8201L45 38.5589L41.3152 52.3152L27.5589 56L12.778 41.2139L17.172 36.8201ZM8.76195 47.238L6.93495 40.4169L19.1799 28.172L14.7861 23.7728L2.76885 35.7952L0 38.5589L3.69001 52.31L17.4411 56L19.1799 54.2558L13.4096 48.4803L8.76195 47.238ZM25.8201 38.828L38.0702 26.5779L36.2381 19.7568L31.5907 18.5148L25.8201 12.7442L27.5589 11L41.3152 14.6848L45 28.4411L30.2139 43.222L25.8201 38.828ZM3.69 14.6848L0 28.4411L1.7442 30.1799L7.51478 24.4044L3.69 14.6848Z" fill="url(#paint0_linear)"/>
<defs>
<linearGradient id="paint0_linear" x1="22.5" y1="11" x2="22.5" y2="56" gradientUnits="userSpaceOnUse">
<stop stop-color="#3AF4E9"/>
<stop offset="0.755208" stop-color="#2BFFF2" stop-opacity="0.078125"/>
<stop offset="1" stop-color="white" stop-opacity="0"/>
</linearGradient>
</defs>
</svg>
