<svg width="320" height="62" viewBox="0 0 320 62" fill="none" xmlns="http://www.w3.org/2000/svg">
<path d="M55.5156 12.3203H73.8437C73.9375 12.3203 74.0312 12.414 74.125 12.6015V18.625C74.125 18.7031 74.0312 18.7969 73.8437 18.9062H55.5156C55.4219 18.9062 55.3281 18.8125 55.2344 18.625V12.6015C55.2344 12.5078 55.3281 12.414 55.5156 12.3203ZM55.5156 25.8203H73.8437C73.9375 25.8203 74.0312 25.914 74.125 26.1015V32.125C74.125 32.2187 74.0312 32.3125 73.8437 32.4062H55.5156C55.4219 32.4062 55.3281 32.3125 55.2344 32.125V26.1015C55.2344 26.0234 55.3281 25.9297 55.5156 25.8203ZM55.5156 39.4375H73.8437C73.9375 39.4375 74.0312 39.5234 74.125 39.6953V45.7187C74.125 45.8125 74.0312 45.9062 73.8437 46H55.5156C55.4219 46 55.3281 45.9062 55.2344 45.7187V39.6953C55.2344 39.6172 55.3281 39.5312 55.5156 39.4375ZM95.5469 12.414C95.7187 12.5078 95.8047 12.6015 95.8047 12.6953V39.4375H112.094C112.281 39.5469 112.375 39.6406 112.375 39.7187V45.7187C112.281 45.9062 112.187 46 112.094 46H89.3594C89.1719 45.9062 89.0781 45.8125 89.0781 45.7187V12.6953C89.1719 12.5078 89.2656 12.414 89.3594 12.414H95.5469ZM127.609 12.3203H145.937C146.031 12.3203 146.125 12.414 146.219 12.6015V18.625C146.219 18.7031 146.125 18.7969 145.937 18.9062H127.609C127.516 18.9062 127.422 18.8125 127.328 18.625V12.6015C127.328 12.5078 127.422 12.414 127.609 12.3203ZM127.609 25.8203H145.937C146.031 25.8203 146.125 25.914 146.219 26.1015V32.125C146.219 32.2187 146.125 32.3125 145.937 32.4062H127.609C127.516 32.4062 127.422 32.3125 127.328 32.125V26.1015C127.328 26.0234 127.422 25.9297 127.609 25.8203ZM127.609 39.4375H145.937C146.031 39.4375 146.125 39.5234 146.219 39.6953V45.7187C146.219 45.8125 146.125 45.9062 145.937 46H127.609C127.516 46 127.422 45.9062 127.328 45.7187V39.6953C127.328 39.6172 127.422 39.5312 127.609 39.4375Z" fill="black"/>
<path d="M161.422 12.3438H168.992C169.43 12.3438 170.586 13.7109 172.461 16.4453C175.867 20.9453 177.594 23.1953 177.641 23.1953L185.961 12.4375C186.055 12.375 186.172 12.3438 186.312 12.3438H194.07C194.07 12.5938 192.82 14.2969 190.32 17.4531C185.07 24.2344 182.219 28 181.766 28.75C190.516 40 194.891 45.7188 194.891 45.9062V46H187.133C186.758 46 185.969 45.0859 184.766 43.2578L161.234 12.5312C161.25 12.4063 161.312 12.3438 161.422 12.3438Z" fill="#42E0D7"/>
<path d="M172.461 16.4453L171.636 17.0108L171.649 17.0302L171.664 17.0489L172.461 16.4453ZM177.641 23.1953V24.1953H178.131L178.432 23.8071L177.641 23.1953ZM185.961 12.4375L185.406 11.6054L185.27 11.6962L185.17 11.8257L185.961 12.4375ZM194.07 12.3438H195.07V11.3438H194.07V12.3438ZM190.32 17.4531L189.536 16.8322L189.53 16.841L190.32 17.4531ZM181.766 28.75L180.91 28.2329L180.554 28.8213L180.976 29.3639L181.766 28.75ZM194.891 46V47H195.891V46H194.891ZM184.766 43.2578L185.601 42.7081L185.581 42.6782L185.56 42.6498L184.766 43.2578ZM161.234 12.5312L160.242 12.4072L160.191 12.8139L160.44 13.1393L161.234 12.5312ZM161.422 13.3438H168.992V11.3438H161.422V13.3438ZM168.992 13.3438C168.891 13.3438 168.816 13.3245 168.774 13.3111C168.732 13.2975 168.709 13.2844 168.705 13.2826C168.702 13.2808 168.733 13.2986 168.804 13.3591C168.944 13.4795 169.149 13.6897 169.424 14.0149C169.969 14.6597 170.705 15.6523 171.636 17.0108L173.286 15.8798C172.342 14.5039 171.562 13.4458 170.951 12.7234C170.648 12.365 170.364 12.0625 170.106 11.8411C169.977 11.7307 169.832 11.6203 169.674 11.533C169.53 11.4533 169.29 11.3438 168.992 11.3438V13.3438ZM171.664 17.0489C173.367 19.2992 174.652 20.9889 175.517 22.1166C175.949 22.6799 176.279 23.1059 176.505 23.3925C176.617 23.5347 176.708 23.6482 176.775 23.7285C176.807 23.7669 176.841 23.8078 176.874 23.8433C176.888 23.8587 176.916 23.8895 176.952 23.9224C176.967 23.9369 177.006 23.9722 177.06 24.01C177.086 24.0285 177.137 24.0629 177.206 24.0961C177.257 24.1205 177.418 24.1953 177.641 24.1953V22.1953C177.862 22.1953 178.023 22.2698 178.073 22.2937C178.141 22.3264 178.19 22.3599 178.215 22.3774C178.265 22.413 178.3 22.4449 178.311 22.455C178.326 22.469 178.337 22.4799 178.341 22.4847C178.346 22.4902 178.35 22.4938 178.351 22.4946C178.351 22.4949 178.34 22.4831 178.314 22.4512C178.264 22.3909 178.185 22.2934 178.076 22.1544C177.858 21.8784 177.535 21.4607 177.104 20.899C176.243 19.7767 174.961 18.0914 173.258 15.8418L171.664 17.0489ZM178.432 23.8071L186.752 13.0493L185.17 11.8257L176.85 22.5835L178.432 23.8071ZM186.516 13.2696C186.409 13.3409 186.32 13.3438 186.312 13.3438V11.3438C186.024 11.3438 185.701 11.4091 185.406 11.6054L186.516 13.2696ZM186.312 13.3438H194.07V11.3438H186.312V13.3438ZM193.07 12.3438C193.07 12.1837 193.113 12.074 193.115 12.0673C193.125 12.0414 193.13 12.0339 193.121 12.0516C193.103 12.0862 193.064 12.1543 192.994 12.2647C192.855 12.4819 192.635 12.7968 192.327 13.2169C191.713 14.0534 190.784 15.2568 189.536 16.8322L191.104 18.074C192.356 16.4932 193.303 15.2669 193.939 14.4003C194.256 13.9688 194.505 13.6138 194.678 13.3428C194.764 13.209 194.842 13.0784 194.903 12.9596C194.933 12.9007 194.967 12.8279 194.996 12.748C195.018 12.6874 195.07 12.5351 195.07 12.3438H193.07ZM189.53 16.841C186.904 20.2325 184.876 22.8725 183.447 24.7596C182.039 26.6188 181.171 27.801 180.91 28.2329L182.622 29.2671C182.814 28.949 183.598 27.8734 185.041 25.967C186.464 24.0884 188.487 21.455 191.111 18.0653L189.53 16.841ZM180.976 29.3639C185.351 34.9884 188.63 39.2281 190.815 42.0842C191.908 43.5128 192.725 44.5919 193.267 45.3237C193.539 45.6908 193.737 45.9641 193.865 46.1482C193.93 46.2419 193.97 46.3017 193.99 46.3346C194.002 46.3528 193.998 46.348 193.988 46.3288C193.984 46.32 193.969 46.2906 193.952 46.2481C193.947 46.2344 193.891 46.0954 193.891 45.9062H195.891C195.891 45.7112 195.832 45.5637 195.822 45.5387C195.802 45.4849 195.781 45.4416 195.768 45.4161C195.741 45.3636 195.711 45.3147 195.688 45.278C195.64 45.2009 195.578 45.1077 195.506 45.0051C195.361 44.7966 195.149 44.5045 194.874 44.1333C194.322 43.3886 193.498 42.2997 192.404 40.8689C190.214 38.0063 186.93 33.7616 182.555 28.1361L180.976 29.3639ZM193.891 45.9062V46H195.891V45.9062H193.891ZM194.891 45H187.133V47H194.891V45ZM187.133 45C187.396 45 187.506 45.132 187.392 45.0421C187.318 44.9845 187.195 44.8672 187.017 44.661C186.665 44.2531 186.194 43.6099 185.601 42.7081L183.93 43.8076C184.54 44.7338 185.066 45.4618 185.503 45.9679C185.719 46.2188 185.939 46.4442 186.156 46.6151C186.333 46.7537 186.682 47 187.133 47V45ZM185.56 42.6498L162.028 11.9232L160.44 13.1393L183.972 43.8658L185.56 42.6498ZM162.227 12.6553C162.218 12.7221 162.181 12.9171 162 13.0977C161.801 13.2965 161.566 13.3438 161.422 13.3438V11.3438C161.169 11.3438 160.847 11.4223 160.586 11.6835C160.343 11.9266 160.266 12.2154 160.242 12.4072L162.227 12.6553Z" fill="black"/>
<path d="M214.872 46H210.456V11.632H214.872V26.368H232.056V11.632H236.472V46H232.056V30.496H214.872V46ZM264.924 46.768C261.116 46.768 258.044 45.52 255.708 43.024C253.372 40.56 252.204 37.296 252.204 33.232V11.632H256.62V33.424C256.62 36.24 257.356 38.464 258.828 40.096C260.3 41.728 262.332 42.544 264.924 42.544C267.516 42.544 269.548 41.728 271.02 40.096C272.492 38.464 273.228 36.24 273.228 33.424V11.632H277.644V33.232C277.644 37.392 276.492 40.688 274.188 43.12C271.884 45.552 268.796 46.768 264.924 46.768ZM294.315 46V11.632H306.747C309.467 11.632 311.803 12.528 313.755 14.32C315.707 16.08 316.683 18.304 316.683 20.992C316.683 24.384 315.131 26.768 312.027 28.144V28.336C313.787 28.912 315.195 29.92 316.251 31.36C317.307 32.768 317.835 34.384 317.835 36.208C317.835 39.024 316.811 41.36 314.763 43.216C312.779 45.072 310.331 46 307.419 46H294.315ZM298.731 15.856V26.368H306.747C308.315 26.368 309.627 25.84 310.683 24.784C311.739 23.696 312.267 22.464 312.267 21.088C312.267 19.744 311.755 18.528 310.731 17.44C309.707 16.384 308.443 15.856 306.939 15.856H298.731ZM298.731 30.496V41.776H307.611C309.211 41.776 310.571 41.216 311.691 40.096C312.779 38.976 313.323 37.648 313.323 36.112C313.323 34.608 312.763 33.296 311.643 32.176C310.523 31.056 309.115 30.496 307.419 30.496H298.731Z" fill="black"/>
<path fill-rule="evenodd" clip-rule="evenodd" d="M17.9167 11.3333C17.9167 10.4129 18.6629 9.66667 19.5833 9.66667C26.2568 9.66667 31.6667 15.0766 31.6667 21.75C31.6667 27.965 26.9745 33.0841 20.9394 33.7581C20.6735 33.8011 20.4016 33.8262 20.1249 33.832C21.7032 35.3793 23.8652 36.3333 26.25 36.3333C31.0825 36.3333 35 32.4159 35 27.5833C35 26.6629 35.7462 25.9167 36.6667 25.9167C37.5871 25.9167 38.3333 26.6629 38.3333 27.5833C38.3333 34.2568 32.9235 39.6667 26.25 39.6667C20.035 39.6667 14.9159 34.9745 14.2419 28.9394C14.1924 28.6336 14.1667 28.3198 14.1667 28C14.1667 27.7901 14.1536 27.5751 14.1806 27.3667C12.1424 28.9687 10.8333 31.4564 10.8333 34.25C10.8333 39.0825 14.7508 43 19.5833 43C20.5038 43 21.25 43.7462 21.25 44.6667C21.25 45.5871 20.5038 46.3333 19.5833 46.3333C12.9099 46.3333 7.5 40.9235 7.5 34.25C7.5 27.5765 12.9099 22.1667 19.5833 22.1667C20.1715 22.1667 20.7455 22.1867 21.2915 22.3101C19.7696 19.7306 16.9619 18 13.75 18C8.9175 18 5 21.9175 5 26.75C5 27.6705 4.25381 28.4167 3.33333 28.4167C2.41286 28.4167 1.66667 27.6705 1.66667 26.75C1.66667 20.0765 7.07656 14.6667 13.75 14.6667C20.4235 14.6667 25.8333 20.0765 25.8333 26.75C25.8333 27.1288 25.824 27.4913 25.832 27.8751C27.3793 26.2968 28.3333 24.1348 28.3333 21.75C28.3333 16.9175 24.4159 13 19.5833 13C18.6629 13 17.9167 12.2538 17.9167 11.3333ZM20.4729 30.4553C21.6275 30.2343 22.5 29.219 22.5 28C22.5 26.6193 21.3807 25.5 20 25.5C18.668 25.5 17.5792 26.5418 17.5041 27.855C17.5105 28.0628 17.5241 28.2689 17.5447 28.4729C17.7569 29.5814 18.7011 30.4299 19.855 30.4959C20.0628 30.4895 20.2689 30.4759 20.4729 30.4553Z" fill="#2E2E2E"/>
</svg>
